<?xml version="1.0" encoding="UTF-8" standalone="no"?>
<!-- Created with Inkscape (http://www.inkscape.org/) -->

<svg
   xmlns:dc="http://purl.org/dc/elements/1.1/"
   xmlns:cc="http://creativecommons.org/ns#"
   xmlns:rdf="http://www.w3.org/1999/02/22-rdf-syntax-ns#"
   xmlns:svg="http://www.w3.org/2000/svg"
   xmlns="http://www.w3.org/2000/svg"
   xmlns:xlink="http://www.w3.org/1999/xlink"
   xmlns:sodipodi="http://sodipodi.sourceforge.net/DTD/sodipodi-0.dtd"
   xmlns:inkscape="http://www.inkscape.org/namespaces/inkscape"
   width="19.999998"
   height="12.000001"
   viewBox="0 0 5.2916662 3.1750002"
   version="1.1"
   id="svg8"
   sodipodi:docname="midi-app-logo.svg"
   inkscape:version="0.92.1 r15371">
  <defs
     id="defs2">
    <linearGradient
       inkscape:collect="always"
       id="linearGradient3765">
      <stop
         style="stop-color:#008080;stop-opacity:1;"
         offset="0"
         id="stop3761" />
      <stop
         style="stop-color:#008080;stop-opacity:0;"
         offset="1"
         id="stop3763" />
    </linearGradient>
    <linearGradient
       inkscape:collect="always"
       id="linearGradient3733">
      <stop
         style="stop-color:#000000;stop-opacity:1;"
         offset="0"
         id="stop3729" />
      <stop
         style="stop-color:#ff0000;stop-opacity:1"
         offset="1"
         id="stop3731" />
    </linearGradient>
    <linearGradient
       inkscape:collect="always"
       xlink:href="#linearGradient3733"
       id="linearGradient3735"
       x1="13.230097"
       y1="17.364437"
       x2="18.121181"
       y2="17.364437"
       gradientUnits="userSpaceOnUse" />
    <linearGradient
       inkscape:collect="always"
       xlink:href="#linearGradient3765"
       id="linearGradient3767"
       x1="13.598215"
       y1="17.666819"
       x2="17.335978"
       y2="17.708578"
       gradientUnits="userSpaceOnUse" />
  </defs>
  <sodipodi:namedview
     id="base"
     pagecolor="#ffffff"
     bordercolor="#666666"
     borderopacity="1.0"
     inkscape:pageopacity="0.0"
     inkscape:pageshadow="2"
     inkscape:zoom="31.678384"
     inkscape:cx="18.319577"
     inkscape:cy="3.4463888"
     inkscape:document-units="mm"
     inkscape:current-layer="layer1"
     showgrid="false"
     fit-margin-top="2"
     fit-margin-left="2"
     fit-margin-right="2"
     fit-margin-bottom="2"
     units="px"
     inkscape:window-width="1536"
     inkscape:window-height="801"
     inkscape:window-x="-8"
     inkscape:window-y="-8"
     inkscape:window-maximized="1" />
  <metadata
     id="metadata5">
    <rdf:RDF>
      <cc:Work
         rdf:about="">
        <dc:format>image/svg+xml</dc:format>
        <dc:type
           rdf:resource="http://purl.org/dc/dcmitype/StillImage" />
        <dc:title></dc:title>
      </cc:Work>
    </rdf:RDF>
  </metadata>
  <g
     inkscape:label="Calque 1"
     inkscape:groupmode="layer"
     id="layer1"
     transform="translate(-12.516874,-15.625746)">
    <path
       id="path3680"
       d="m 13.230097,17.364437 h -0.184056 v -0.151191 h 0.184056 z m 4.049277,-0.151191 h -0.184056 v 0.151191 h 0.184056 z m -3.681159,-0.15119 h -0.184062 v 0.453571 h 0.184062 z m 3.313048,0 H 16.7272 v 0.453571 h 0.184063 z m -2.576817,0 H 14.15039 v 0.453571 h 0.184056 z m 1.840579,-0.15119 h -0.184056 v 0.755952 h 0.184056 z m -2.208698,0 h -0.184056 v 0.755952 h 0.184056 z m 2.576817,-0.151191 h -0.184056 v 1.058334 h 0.184056 z m -1.840579,0 h -0.184063 v 1.058334 h 0.184063 z m 0.368111,-0.30238 h -0.184055 v 1.511904 h 0.184055 z m 0.736237,0 h -0.184062 v 1.511904 h 0.184062 z m -0.368118,-0.302382 h -0.184056 v 2.116667 h 0.184056 z"
       inkscape:connector-curvature="0"
       style="stroke-width:0.16681677;fill-opacity:1;fill:url(#linearGradient3735)" />
    <path
       id="path3680-8"
       d="m 13.230097,17.515628 h -0.184056 v -0.151191 h 0.184056 z m 4.049277,-0.151191 h -0.184056 v 0.151191 h 0.184056 z m -3.681159,-0.15119 h -0.184062 v 0.453571 h 0.184062 z m 3.313048,0 H 16.7272 v 0.453571 h 0.184063 z m -2.576817,0 H 14.15039 v 0.453571 h 0.184056 z m 1.840579,-0.15119 h -0.184056 v 0.755952 h 0.184056 z m -2.208698,0 h -0.184056 v 0.755952 h 0.184056 z m 2.576817,-0.151191 H 16.359088 V 17.9692 h 0.184056 z m -1.840579,0 H 14.518502 V 17.9692 h 0.184063 z m 0.368111,-0.30238 h -0.184055 v 1.511904 h 0.184055 z m 0.736237,0 h -0.184062 v 1.511904 h 0.184062 z m -0.368118,-0.302382 h -0.184056 v 2.116667 h 0.184056 z"
       inkscape:connector-curvature="0"
       style="fill:url(#linearGradient3767);fill-opacity:1;stroke-width:0.16681677" />
  </g>
</svg>
